<?xml version="1.0" encoding="UTF-8"?>
<!-- Generator: Adobe Illustrator 15.1.0, SVG Export Plug-In . SVG Version: 6.00 Build 0)  -->
<!DOCTYPE svg PUBLIC "-//W3C//DTD SVG 1.1//EN" "http://www.w3.org/Graphics/SVG/1.1/DTD/svg11.dtd">
<svg version="1.1" id="svg2" xmlns:rdf="http://www.w3.org/1999/02/22-rdf-syntax-ns#" xmlns:svg="http://www.w3.org/2000/svg" xmlns:dc="http://purl.org/dc/elements/1.1/" xmlns:cc="http://creativecommons.org/ns#" xmlns="http://www.w3.org/2000/svg" xmlns:xlink="http://www.w3.org/1999/xlink" x="0px" y="0px" width="252px" height="122px" viewBox="0 0 252 122" enable-background="new 0 0 252 122" xml:space="preserve">
<g>
	<path id="path6" fill="#F2F2F2" d="M93.467,69.876c-1.46,0.38-4.316,0.826-8.191,0.826c-8.255,0-14.478-5.081-14.478-15.432v-5.906   c0-10.351,6.223-15.431,14.478-15.431c3.875,0,6.731,0.445,8.191,0.826c1.081,0.255,1.334,0.635,1.334,1.651v4.127   c0,0.635-0.508,0.954-1.143,0.954c-0.063,0-0.127,0-0.191,0c-2.539-0.318-4.063-0.445-8.191-0.445   c-2.984,0-6.096,1.714-6.096,8.318v5.906c0,6.604,3.111,8.319,6.096,8.319c4.128,0,5.651-0.128,8.191-0.445   c0.064,0,0.128,0,0.191,0c0.635,0,1.143,0.318,1.143,0.954v4.127C94.802,69.24,94.548,69.622,93.467,69.876z"/>
	<path id="path8" fill="#F2F2F2" d="M121.914,69.876c-1.46,0.38-4.317,0.826-8.191,0.826c-8.255,0-14.479-5.081-14.479-15.432   v-5.906c0-10.351,6.224-15.431,14.479-15.431c3.875,0,6.732,0.445,8.191,0.826c1.08,0.255,1.334,0.635,1.334,1.651v4.127   c0,0.635-0.509,0.954-1.144,0.954c-0.063,0-0.127,0-0.19,0c-2.54-0.318-4.065-0.445-8.191-0.445c-2.985,0-6.097,1.714-6.097,8.318   v5.906c0,6.604,3.111,8.319,6.097,8.319c4.127,0,5.651-0.128,8.191-0.445c0.063,0,0.127,0,0.19,0c0.635,0,1.144,0.318,1.144,0.954   v4.127C123.248,69.24,122.993,69.622,121.914,69.876z"/>
	<path id="path10" fill="#F2F2F2" d="M156.966,55.207h-20.702v0.19c0,3.684,1.523,8.064,7.62,8.064   c4.637,0,9.018-0.381,11.684-0.635c0.064,0,0.128,0,0.191,0c0.635,0,1.144,0.316,1.144,0.951v4.191   c0,1.017-0.191,1.462-1.335,1.652c-4.127,0.763-6.604,1.08-12.32,1.08c-6.35,0-15.366-3.429-15.366-15.939v-4.7   c0-9.906,5.524-16.13,15.24-16.13c9.779,0,15.113,6.668,15.113,16.13v3.557C158.234,54.634,157.855,55.207,156.966,55.207z    M149.79,48.983c0-4.952-2.731-7.811-6.669-7.811s-6.794,2.793-6.794,7.811v0.254h13.463V48.983z"/>
	<path id="path12" fill="#F2F2F2" d="M175.759,70.702c-2.476,0-7.811-0.318-11.367-1.271c-0.763-0.191-1.206-0.698-1.206-1.462   v-3.809c0-0.508,0.443-1.018,1.144-1.018c0.063,0,0.126,0,0.189,0c3.048,0.382,8.764,0.7,10.668,0.7   c3.938,0,4.508-1.334,4.508-3.048c0-1.207-0.761-1.969-2.793-3.239l-8.699-5.334c-3.112-1.905-5.334-5.08-5.334-8.763   c0-6.351,4-9.526,12.065-9.526c5.144,0,8.064,0.572,11.304,1.271c0.762,0.19,1.143,0.698,1.143,1.459v3.684   c0,0.762-0.444,1.207-1.079,1.207c-0.063,0-0.127,0-0.191,0c-1.777-0.254-6.858-0.763-10.479-0.763c-3.048,0-4.381,0.7-4.381,2.667   c0,1.016,0.953,1.651,2.539,2.603l8.319,5.08c5.334,3.239,6.096,6.415,6.096,9.652C188.205,66.32,184.079,70.702,175.759,70.702z"/>
	<path id="path14" fill="#F2F2F2" d="M205.539,70.702c-2.476,0-7.81-0.318-11.367-1.271c-0.761-0.191-1.206-0.698-1.206-1.462   v-3.809c0-0.508,0.445-1.018,1.144-1.018c0.064,0,0.128,0,0.19,0c3.049,0.382,8.764,0.7,10.669,0.7   c3.937,0,4.508-1.334,4.508-3.048c0-1.207-0.761-1.969-2.794-3.239l-8.699-5.334c-3.111-1.905-5.334-5.08-5.334-8.763   c0-6.351,4.001-9.526,12.066-9.526c5.143,0,8.064,0.572,11.303,1.271c0.762,0.19,1.144,0.698,1.144,1.459v3.684   c0,0.762-0.446,1.207-1.08,1.207c-0.063,0-0.127,0-0.19,0c-1.778-0.254-6.858-0.763-10.478-0.763c-3.049,0-4.381,0.7-4.381,2.667   c0,1.016,0.951,1.651,2.539,2.603l8.319,5.08c5.334,3.239,6.096,6.415,6.096,9.652C217.987,66.32,213.858,70.702,205.539,70.702z"/>
	<path id="path16" fill="#F2F2F2" d="M93.465,34.762c-1.46-0.38-4.317-0.825-8.19-0.825c-8.255,0-14.477,5.08-14.477,15.43v5.904   c0,10.352,6.223,15.431,14.477,15.431c3.873,0,6.73-0.443,8.19-0.825c1.079-0.255,1.333-0.635,1.333-1.65v-4.128   c0-0.636-0.508-0.954-1.143-0.954c-0.063,0-0.127,0-0.191,0c-2.539,0.318-4.063,0.445-8.19,0.445c-2.984,0-6.096-1.714-6.096-8.318   v-5.905c0-6.604,3.111-8.318,6.096-8.318c4.127,0,5.651,0.127,8.19,0.445c0.064,0,0.128,0,0.191,0c0.635,0,1.143-0.318,1.143-0.953   v-4.127C94.799,35.398,94.544,35.017,93.465,34.762z M121.91,34.762c-1.458-0.381-4.315-0.826-8.19-0.826   c-8.254,0-14.477,5.08-14.477,15.43v5.905c0,10.35,6.223,15.431,14.477,15.431c3.875,0,6.732-0.444,8.19-0.826   c1.081-0.254,1.336-0.635,1.336-1.651v-4.126c0-0.636-0.51-0.954-1.145-0.954c-0.063,0-0.128,0-0.191,0   c-2.539,0.318-4.063,0.445-8.19,0.445c-2.983,0-6.096-1.714-6.096-8.318v-5.905c0-6.604,3.112-8.318,6.096-8.318   c4.128,0,5.651,0.127,8.19,0.445c0.063,0,0.129,0,0.191,0c0.635,0,1.145-0.318,1.145-0.953v-4.127   C123.246,35.398,122.991,35.017,121.91,34.762z M143.119,33.938c-9.714,0-15.238,6.223-15.238,16.128v4.699   c0,12.509,9.017,15.938,15.365,15.938c5.715,0,8.19-0.318,12.318-1.08c1.144-0.19,1.335-0.636,1.335-1.65v-4.19   c0-0.636-0.51-0.952-1.145-0.952c-0.063,0-0.128,0-0.191,0c-2.666,0.253-7.049,0.634-11.683,0.634   c-6.096,0-7.619-4.381-7.619-8.064v-0.19h20.7c0.89,0,1.27-0.572,1.27-1.588v-3.557C158.231,40.604,152.898,33.938,143.119,33.938z    M149.787,49.24h-13.461v-0.254c0-5.017,2.856-7.81,6.793-7.81s6.668,2.856,6.668,7.81V49.24z M182.106,51.145l-8.317-5.08   c-1.588-0.953-2.539-1.587-2.539-2.603c0-1.968,1.332-2.667,4.381-2.667c3.619,0,8.698,0.508,10.477,0.762c0.063,0,0.129,0,0.191,0   c0.635,0,1.079-0.445,1.079-1.207v-3.683c0-0.761-0.382-1.269-1.143-1.46c-3.24-0.699-6.159-1.27-11.303-1.27   c-8.064,0-12.065,3.175-12.065,9.524c0,3.683,2.223,6.858,5.334,8.762l8.698,5.334c2.033,1.27,2.794,2.032,2.794,3.238   c0,1.714-0.57,3.049-4.508,3.049c-1.904,0-7.619-0.318-10.667-0.7c-0.063,0-0.127,0-0.189,0c-0.7,0-1.144,0.509-1.144,1.018v3.81   c0,0.762,0.443,1.27,1.206,1.461c3.556,0.952,8.89,1.27,11.365,1.27c8.318,0,12.445-4.381,12.445-9.905   C188.202,57.558,187.441,54.383,182.106,51.145z M211.889,51.145l-8.318-5.08c-1.588-0.953-2.54-1.587-2.54-2.603   c0-1.968,1.334-2.667,4.381-2.667c3.619,0,8.699,0.508,10.478,0.762c0.063,0,0.127,0,0.19,0c0.634,0,1.079-0.445,1.079-1.207   v-3.683c0-0.761-0.38-1.269-1.143-1.46c-3.238-0.699-6.159-1.27-11.302-1.27c-8.064,0-12.065,3.175-12.065,9.524   c0,3.683,2.224,6.858,5.334,8.762l8.699,5.334c2.03,1.27,2.793,2.032,2.793,3.238c0,1.714-0.571,3.049-4.509,3.049   c-1.905,0-7.618-0.318-10.667-0.7c-0.063,0-0.128,0-0.19,0c-0.699,0-1.144,0.509-1.144,1.018v3.81c0,0.762,0.444,1.27,1.206,1.461   c3.557,0.952,8.89,1.27,11.365,1.27c8.318,0,12.446-4.381,12.446-9.905C217.983,57.558,217.221,54.383,211.889,51.145z"/>
	<path id="path18" fill="#F2F2F2" d="M55.284,59.942V41.299c-1.206-0.254-3.811-0.444-6.097-0.444c-5.459,0-6.794,3.873-6.794,9.08   v4.89c0,5.205,1.335,9.08,6.794,9.08c5.643,0,11.386-1.335,14.144-2.028c1.647-0.416,1.664,0.289,1.664,0.289v5.318   c0,0.953-0.254,1.335-1.714,1.716c-3.937,1.016-10.029,1.563-14.094,1.563c-10.223,0-15.175-6.033-15.175-15.939v-4.888   c0-9.906,4.952-15.938,15.176-15.938c4.064,0,8.826,0.635,12.764,1.65c1.46,0.382,1.714,0.763,1.714,1.715v20.675   c0,0,0.017,1.191-0.645,1.48c-1.2,0.422-3.921,1.293-6.871,1.658C55.348,61.266,55.284,59.942,55.284,59.942z"/>
	<path id="path20" fill="#F2F2F2" d="M48.271,20.191c-1.684,0.434-3.723,0.706-5.462,0.706c-4.375,0-6.494-2.581-6.494-6.82v-2.092   c0-4.24,2.119-6.821,6.494-6.821c0.652,0,1.603,0.055,2.608,0.191V0.543c0-0.3,0.244-0.543,0.544-0.543h2.5   c0.299,0,0.543,0.244,0.543,0.543v18.913C49.004,19.865,48.896,20.027,48.271,20.191z M45.417,8.288   c-0.762-0.109-1.957-0.19-2.608-0.19c-2.337,0-2.908,1.658-2.908,3.886v2.092c0,2.229,0.571,3.885,2.908,3.885   c0.979,0,2.093-0.082,2.608-0.19V8.288z"/>
	<path id="path22" fill="#F2F2F2" d="M58.673,8.18c-0.896,0-2.012,0.053-2.664,0.19v11.739c0,0.299-0.217,0.571-0.517,0.571h-2.526   c-0.299,0-0.544-0.272-0.544-0.571V6.767c0-0.354,0.245-0.652,0.734-0.814c1.739-0.571,3.18-0.789,5.517-0.789   c0.326,0,0.788,0.055,0.788,0.462v2.065C59.46,7.988,59.297,8.18,58.673,8.18z"/>
	<path id="path24" fill="#F2F2F2" d="M67.824,20.897c-4.266,0-6.494-2.88-6.494-6.767V11.93c0-3.886,2.229-6.767,6.494-6.767   c4.267,0,6.495,2.88,6.495,6.767v2.201C74.319,18.017,72.091,20.897,67.824,20.897z M70.732,11.93c0-2.229-1.006-3.669-2.907-3.669   c-1.903,0-2.908,1.44-2.908,3.669v2.201c0,2.228,1.005,3.669,2.908,3.669c1.901,0,2.907-1.441,2.907-3.669V11.93z"/>
	<path id="path26" fill="#F2F2F2" d="M83.47,25.504c-1.738,0-3.777-0.272-5.461-0.706c-0.626-0.164-0.733-0.326-0.733-0.734V5.151   c0-0.3,0.243-0.544,0.542-0.544h2.501c0.299,0,0.542,0.244,0.542,0.544V9.96c1.006-0.135,1.957-0.19,2.609-0.19   c4.375,0,6.494,2.582,6.494,6.821v2.093C89.965,22.923,87.845,25.504,83.47,25.504z M86.377,16.591c0-2.229-0.57-3.886-2.907-3.886   c-0.652,0-1.848,0.081-2.609,0.19v9.484c0.517,0.109,1.632,0.19,2.609,0.19c2.337,0,2.907-1.658,2.907-3.885V16.591z"/>
	<path id="path28" fill="#F2F2F2" d="M98.873,20.897c-4.267,0-6.495-2.88-6.495-6.767V11.93c0-3.886,2.229-6.767,6.495-6.767   c4.266,0,6.495,2.88,6.495,6.767v2.201C105.367,18.017,103.139,20.897,98.873,20.897z M101.779,11.93   c0-2.229-1.006-3.669-2.907-3.669c-1.902,0-2.907,1.44-2.907,3.669v2.201c0,2.228,1.005,3.669,2.907,3.669   c1.901,0,2.907-1.441,2.907-3.669V11.93z"/>
</g>
<path fill="#008F48" d="M105.484,89.293c3.182,0.338,5.952,3.063,6.269,7.14c0.054,0.705-0.017,1.42,0.076,2.122  c0.391,2.949,2.682,2.54,2.682,2.54h46.474v6.698h-6.074v7.738h-2.717c0,0,0.367-2.472-1.448-2.472  c-1.719,0-1.441,2.472-1.441,2.472h-2.912v-7.738h-31.894c0,0-2.731,0.167-2.731,2.399c0,1.247,0.088,1.347,0,2.365  c-0.335,3.873-2.933,6.711-6.565,7.273c-3.866,0.599-7.322-1.349-8.824-5.085c-0.425-1.056-0.986-1.893-1.854-2.668  c-4.639-4.146-4.678-10.648-0.1-14.813c0.912-0.828,1.539-1.708,2.006-2.844C97.752,91.21,99.72,88.678,105.484,89.293   M94.793,104.077c-0.177,2.267,0.801,4.347,2.462,5.496c0.569,0.394,1.68,1.004,1.68,1.004s0.319,1.387,0.489,2.13  c0.441,1.931,1.983,3.915,4.027,4.01c1.9,0.092,3.664-1.51,4.324-3.297c1.049-2.839,0.488-6.09,2.162-8.817  c0.024-0.04,0.12-0.164,0.12-0.164s-0.152-0.211-0.201-0.285c-1.463-2.229-0.519-4.691-1.292-7.07  c-0.44-1.358-1.012-4.281-4.972-4.281c-3.598,0-4.641,5.782-4.641,5.782s-3.1,1.676-3.896,4.278  C94.881,103.434,94.822,103.714,94.793,104.077"/>
</svg>