<?xml version="1.0" encoding="UTF-8" standalone="no"?>
<svg xmlns:dc="http://purl.org/dc/elements/1.1/" xmlns:cc="http://creativecommons.org/ns#" xmlns:rdf="http://www.w3.org/1999/02/22-rdf-syntax-ns#" xmlns:svg="http://www.w3.org/2000/svg" xmlns="http://www.w3.org/2000/svg" version="1.1" id="svg2" viewBox="0 0 156.55609 38.91195" height="38.911949" width="156.55609">
  <defs id="defs4"/>
  <metadata id="metadata7">
    <rdf:RDF>
      <cc:Work rdf:about="">
        <dc:format>image/svg+xml</dc:format>
        <dc:type rdf:resource="http://purl.org/dc/dcmitype/StillImage"/>
        <dc:title/>
      </cc:Work>
    </rdf:RDF>
  </metadata>
  <g transform="translate(-276.37665,-521.71539)" id="layer1">
    <path d="m 302.85665,551.90734 0,-14.48 c 0,-4.12 -2.32,-7 -7.12,-7 l -0.92,0 c -2.4,0 -4,0.4 -5.2,1.44 -1.24,-1.12 -2.8,-1.44 -5.2,-1.44 l -0.92,0 c -4.8,0 -7.12,2.88 -7.12,7 l 0,14.48 c 0,0.44 0.28,0.8 0.72,0.8 l 2.08,0 c 0.44,0 0.72,-0.36 0.72,-0.8 l 0,-14.48 c 0,-3.44 1.52,-3.92 3.6,-3.92 l 0.92,0 c 2.56,0 3.44,0.44 3.44,2.72 l 0,15.68 c 0,0.44 0.28,0.8 0.72,0.8 l 2.08,0 c 0.44,0 0.72,-0.36 0.72,-0.8 l 0,-15.68 c 0,-2.28 0.88,-2.72 3.44,-2.72 l 0.92,0 c 2.12,0 3.6,0.48 3.6,3.92 l 0,14.48 c 0,0.44 0.28,0.8 0.72,0.8 l 2.08,0 c 0.44,0 0.72,-0.36 0.72,-0.8 z" style="font-style:normal;font-variant:normal;font-weight:normal;font-stretch:normal;font-size:medium;line-height:125%;font-family:NeoTech;-inkscape-font-specification:'NeoTech, Normal';text-align:start;letter-spacing:0px;word-spacing:0px;writing-mode:lr-tb;text-anchor:start;fill:#000000;fill-opacity:1;stroke:none;stroke-width:1px;stroke-linecap:butt;stroke-linejoin:miter;stroke-opacity:1" id="path5693"/>
    <path d="m 323.90643,552.70734 0,-21.2 c 0,-0.44 -0.36,-0.8 -0.8,-0.8 l -1.92,0 c -0.44,0 -0.8,0.36 -0.8,0.8 l 0,17.96 c -1.16,0.28 -3.2,0.52 -4.36,0.52 -3.36,0 -5.44,-1 -5.44,-5.28 l 0,-13.2 c 0,-0.44 -0.36,-0.8 -0.8,-0.8 l -1.92,0 c -0.44,0 -0.8,0.36 -0.8,0.8 l 0,13.2 c 0,6.68 4.36,8.28 8.96,8.28 1.28,0 3.48,-0.2 4.44,-0.48 l 0,0.2 c 0,4.2 -1.12,5.08 -4.72,5.08 -2.32,0 -5.32,-0.32 -6.52,-0.48 -0.04,0 -0.08,0 -0.12,0 -0.4,0 -0.72,0.28 -0.72,0.68 l 0,1.12 c 0,0.48 0.2,0.68 0.76,0.84 0.92,0.24 3.64,0.68 6.6,0.68 5.44,0 8.16,-1.64 8.16,-7.92 z" style="font-style:normal;font-variant:normal;font-weight:normal;font-stretch:normal;font-size:medium;line-height:125%;font-family:NeoTech;-inkscape-font-specification:'NeoTech, Normal';text-align:start;letter-spacing:0px;word-spacing:0px;writing-mode:lr-tb;text-anchor:start;fill:#000000;fill-opacity:1;stroke:none;stroke-width:1px;stroke-linecap:butt;stroke-linejoin:miter;stroke-opacity:1" id="path5695"/>
    <path d="m 352.12922,540.11539 0,-5.16 c 0,-8.44 -4.8,-12.64 -12.76,-12.64 -3.32,0 -6.88,0.32 -8.52,0.6 -0.76,0.12 -1.16,0.48 -1.16,1.4 l 0,26.44 c 0,0.92 0.4,1.28 1.16,1.4 1.64,0.28 5.2,0.6 8.52,0.6 7.96,0 12.76,-4.2 12.76,-12.64 z m -6.84,0 c 0,5.4 -2.32,6.84 -5.92,6.84 -1,0 -2.28,-0.04 -2.84,-0.08 l 0,-18.68 c 0.56,-0.04 1.84,-0.08 2.84,-0.08 3.6,0 5.92,1.44 5.92,6.84 l 0,5.16 z" style="font-style:normal;font-variant:normal;font-weight:bold;font-stretch:normal;font-size:medium;line-height:125%;font-family:NeoTech;-inkscape-font-specification:'NeoTech, Bold';text-align:start;letter-spacing:0px;word-spacing:0px;writing-mode:lr-tb;text-anchor:start;fill:#000000;fill-opacity:1;stroke:none;stroke-width:1px;stroke-linecap:butt;stroke-linejoin:miter;stroke-opacity:1" id="path5698"/>
    <path d="m 366.45151,533.79539 0,-3.88 c 0,-0.56 -0.6,-0.76 -1.08,-0.76 -3.8,0 -6.28,0.32 -8.84,1.16 -0.92,0.32 -1.24,0.72 -1.24,1.28 l 0,19.96 c 0,0.44 0.4,0.84 0.84,0.84 l 4.84,0 c 0.44,0 0.8,-0.4 0.8,-0.84 l 0,-16.76 c 0.84,-0.16 2.44,-0.24 3.6,-0.24 0.76,0 1.08,-0.32 1.08,-0.76 z" style="font-style:normal;font-variant:normal;font-weight:bold;font-stretch:normal;font-size:medium;line-height:125%;font-family:NeoTech;-inkscape-font-specification:'NeoTech, Bold';text-align:start;letter-spacing:0px;word-spacing:0px;writing-mode:lr-tb;text-anchor:start;fill:#000000;fill-opacity:1;stroke:none;stroke-width:1px;stroke-linecap:butt;stroke-linejoin:miter;stroke-opacity:1" id="path5700"/>
    <path d="m 387.95942,542.35539 0,-2.8 c 0,-6.36 -3.52,-10.4 -10,-10.4 -6.48,0 -10.04,4.04 -10.04,10.4 l 0,2.8 c 0,6.36 3.56,10.4 10.04,10.4 6.48,0 10,-4.04 10,-10.4 z m -6.44,0 c 0,3.24 -1.24,4.92 -3.56,4.92 -2.32,0 -3.6,-1.68 -3.6,-4.92 l 0,-2.8 c 0,-3.24 1.28,-4.88 3.6,-4.88 2.32,0 3.56,1.64 3.56,4.88 l 0,2.8 z" style="font-style:normal;font-variant:normal;font-weight:bold;font-stretch:normal;font-size:medium;line-height:125%;font-family:NeoTech;-inkscape-font-specification:'NeoTech, Bold';text-align:start;letter-spacing:0px;word-spacing:0px;writing-mode:lr-tb;text-anchor:start;fill:#000000;fill-opacity:1;stroke:none;stroke-width:1px;stroke-linecap:butt;stroke-linejoin:miter;stroke-opacity:1" id="path5702"/>
    <path d="m 410.68983,542.51539 0,-3.12 c 0,-6.28 -3.28,-10.24 -10.04,-10.24 -0.8,0 -2.12,0.12 -3.28,0.28 l 0,-6.92 c 0,-0.44 -0.36,-0.8 -0.8,-0.8 l -4.84,0 c -0.44,0 -0.84,0.36 -0.84,0.8 l 0,28.04 c 0,0.64 0.16,0.92 1.24,1.16 2.28,0.56 5.44,1.04 8.52,1.04 6.48,0 10.04,-3.76 10.04,-10.24 z m -6.48,0 c 0,2.84 -0.72,4.92 -3.56,4.92 -1.32,0 -2.52,-0.12 -3.28,-0.24 l 0,-12.48 c 0.96,-0.12 2.32,-0.2 3.28,-0.2 2.84,0 3.56,2.08 3.56,4.88 l 0,3.12 z" style="font-style:normal;font-variant:normal;font-weight:bold;font-stretch:normal;font-size:medium;line-height:125%;font-family:NeoTech;-inkscape-font-specification:'NeoTech, Bold';text-align:start;letter-spacing:0px;word-spacing:0px;writing-mode:lr-tb;text-anchor:start;fill:#000000;fill-opacity:1;stroke:none;stroke-width:1px;stroke-linecap:butt;stroke-linejoin:miter;stroke-opacity:1" id="path5704"/>
    <path d="m 432.93274,542.35539 0,-2.8 c 0,-6.36 -3.52,-10.4 -10,-10.4 -6.48,0 -10.04,4.04 -10.04,10.4 l 0,2.8 c 0,6.36 3.56,10.4 10.04,10.4 6.48,0 10,-4.04 10,-10.4 z m -6.44,0 c 0,3.24 -1.24,4.92 -3.56,4.92 -2.32,0 -3.6,-1.68 -3.6,-4.92 l 0,-2.8 c 0,-3.24 1.28,-4.88 3.6,-4.88 2.32,0 3.56,1.64 3.56,4.88 l 0,2.8 z" style="font-style:normal;font-variant:normal;font-weight:bold;font-stretch:normal;font-size:medium;line-height:125%;font-family:NeoTech;-inkscape-font-specification:'NeoTech, Bold';text-align:start;letter-spacing:0px;word-spacing:0px;writing-mode:lr-tb;text-anchor:start;fill:#000000;fill-opacity:1;stroke:none;stroke-width:1px;stroke-linecap:butt;stroke-linejoin:miter;stroke-opacity:1" id="path5706"/>
  </g>
</svg>